PathFileType	4	(X/Y/Z)	/Users/itak/Documents/Research/Walk-IL/dataset/trc/00514_00183.trc
DataRate	CameraRate	NumFrames	NumMarkers	Units	OrigDataRate	OrigDataStartFrame	OrigNumFrames
100.000000	100.000000	4	53	mm	100.000000	301	483
Frame#	Time	RPSI			LPSI			L3			STRN			T10			C7			CLAV			RBAK			LBAK			LSHO			LUPA			LAEL			LAOL			LWTS			LWPS			LFRA			LHPS			LHTS			RSHO			RUPA			RAEL			RAOL			RWTS			RWPS			RFRA			RIFD			RHTS			RHPS			RBHD			LFHD			RFHD			LBHD			LHIP			RHIP			RASI			LASI			LKNE			LTHI			LANK			LTIP			LTOE			LMT1			LMT5			LHEE			RKNE			RTHI			RANK			RTIP			RTOE			RMT1			RMT5			RHEE			LIFD			
		X1	Y1	Z1	X2	Y2	Z2	X3	Y3	Z3	X4	Y4	Z4	X5	Y5	Z5	X6	Y6	Z6	X7	Y7	Z7	X8	Y8	Z8	X9	Y9	Z9	X10	Y10	Z10	X11	Y11	Z11	X12	Y12	Z12	X13	Y13	Z13	X14	Y14	Z14	X15	Y15	Z15	X16	Y16	Z16	X17	Y17	Z17	X18	Y18	Z18	X19	Y19	Z19	X20	Y20	Z20	X21	Y21	Z21	X22	Y22	Z22	X23	Y23	Z23	X24	Y24	Z24	X25	Y25	Z25	X26	Y26	Z26	X27	Y27	Z27	X28	Y28	Z28	X29	Y29	Z29	X30	Y30	Z30	X31	Y31	Z31	X32	Y32	Z32	X33	Y33	Z33	X34	Y34	Z34	X35	Y35	Z35	X36	Y36	Z36	X37	Y37	Z37	X38	Y38	Z38	X39	Y39	Z39	X40	Y40	Z40	X41	Y41	Z41	X42	Y42	Z42	X43	Y43	Z43	X44	Y44	Z44	X45	Y45	Z45	X46	Y46	Z46	X47	Y47	Z47	X48	Y48	Z48	X49	Y49	Z49	X50	Y50	Z50	X51	Y51	Z51	X52	Y52	Z52	X53	Y53	Z53	

302	3.01	500.3411254882812	920.6322631835938	-7.427756309509277	585.89501953125	924.3344116210938	-96.01958465576172	545.117431640625	991.9586181640625	-67.48030853271484	685.0885620117188	1161.825805664062	98.31371307373047	523.9548950195312	1097.095825195312	-83.95709228515625	545.8433227539062	1326.87646484375	-34.85301971435547	652.8056030273438	1255.836547851562	75.57958984375	456.6367492675781	1200.421630859375	-21.99304962158203	595.2850952148438	1278.22509765625	-114.710334777832	707.5068969726562	1333.899780273438	-92.55162048339844	754.649169921875	1212.740966796875	-145.8780822753906	812.0770263671875	1009.669311523438	-160.2110443115234	714.9049072265625	985.3887329101562	-159.4271545410156	882.8170166015625	838.1808471679688	-65.23309326171875	860.284423828125	792.7440185546875	-145.0966491699219	840.1732177734375	929.9359130859375	-147.3320159912109	886.7948608398438	745.6287841796875	-123.3545989990234	917.6809692382812	766.2308959960938	-69.55561065673828	468.1270141601562	1312.62646484375	99.30903625488281	413.8374938964844	1248.125	105.7014465332031	343.6669616699219	994.8443603515625	65.25716400146484	366.9863891601562	989.5809936523438	2.651066541671753	374.3512268066406	768.9880981445312	91.59809112548828	306.6832275390625	770.6688232421875	30.62149238586426	330.592041015625	942.9310913085938	56.00732421875	350.7649841308594	618.6338500976562	48.45336151123047	343.9271850585938	678.3235473632812	84.32289886474609	302.7986755371094	698.8157958984375	30.43214225769043	501.5980224609375	1474.641235351562	63.77292251586914	686.7008666992188	1545.825561523438	87.40980529785156	583.6585693359375	1527.882690429688	160.099853515625	621.8824462890625	1493.375122070312	-39.59100723266602	751.7991333007812	854.5243530273438	-122.3175582885742	500.2333374023438	825.6318969726562	159.6488494873047	613.61767578125	877.5958862304688	173.0127105712891	775.0667724609375	889.060546875	-7.875129222869873	715.4544677734375	434.4952697753906	-126.5856857299805	752.0548706054688	591.679931640625	-110.8900604248047	450.447509765625	162.7403411865234	-363.0538635253906	638.5580444335938	329.7148132324219	-205.9944152832031	501.362060546875	29.63422584533691	-251.0725708007812	446.55517578125	69.38203430175781	-248.8233032226562	502.5302124023438	69.83305358886719	-340.4911193847656	393.0368957519531	198.5006408691406	-329.3712158203125	655.6146850585938	462.5186157226562	178.0241851806641	550.3651733398438	704.09033203125	188.9416961669922	727.2510375976562	41.97603607177734	119.3758316040039	708.43115234375	324.0050964355469	181.6850891113281	859.2494506835938	54.71068572998047	273.7280883789062	864.771240234375	47.84835433959961	199.1241149902344	770.3856201171875	44.80592727661133	221.7664337158203	747.3999633789062	31.51843643188477	52.63799667358398	912.0299072265625	684.494140625	-49.84655380249023	
303	3.02	507.6103820800781	921.5980834960938	-0.2581519186496735	593.8721923828125	924.2427978515625	-88.26142883300781	552.870849609375	992.369873046875	-59.0605583190918	691.42529296875	1162.535034179688	107.0111389160156	532.028564453125	1097.470947265625	-76.00428771972656	552.6632080078125	1327.369873046875	-27.24332237243652	659.1436767578125	1256.49267578125	83.96535491943359	463.7422485351562	1200.776000976562	-14.67282199859619	602.7548828125	1278.754516601562	-106.8026428222656	714.7579956054688	1334.535522460938	-83.83462524414062	762.1516723632812	1213.228759765625	-136.6106414794922	819.0970458984375	1009.98486328125	-150.2072296142578	721.9041137695312	985.9949951171875	-149.9018707275391	888.7598876953125	838.0916137695312	-54.9959716796875	866.7266845703125	792.8477783203125	-135.1249847412109	847.0032958984375	930.2313842773438	-137.2709655761719	892.7073974609375	745.5339965820312	-113.1131362915039	923.1195068359375	765.8006591796875	-58.98774337768555	474.345458984375	1313.229125976562	106.6008224487305	420.09033203125	1248.605346679688	112.9814453125	350.7300720214844	994.9132690429688	73.43044281005859	374.283935546875	989.3999633789062	10.93134212493896	381.7448120117188	769.24365234375	101.1603622436523	314.3944396972656	770.5366821289062	39.78321075439453	337.850830078125	942.8861083984375	64.39228057861328	358.6647644042969	618.6168823242188	58.5077018737793	351.564208984375	678.4765014648438	94.12062072753906	310.6399230957031	698.6840209960938	39.93444442749023	507.3309631347656	1475.042236328125	70.74874114990234	692.1148681640625	1547.077514648438	94.50735473632812	589.0118408203125	1529.128784179688	166.99462890625	627.8740234375	1493.725341796875	-32.42408752441406	760.090087890625	854.056884765625	-112.5077056884766	506.1055297851562	826.87353515625	167.2116241455078	619.2576293945312	878.7343139648438	181.4929504394531	782.0703735351562	889.50390625	1.949223399162292	733.2314453125	432.9681091308594	-112.6670455932617	765.2417602539062	591.2315063476562	-98.32747650146484	466.2249450683594	172.2964935302734	-355.7514038085938	656.481201171875	330.6267395019531	-193.4580535888672	505.8833923339844	28.71161460876465	-248.3422088623047	454.6895446777344	74.68109893798828	-245.3561096191406	511.9618835449219	75.32794952392578	-335.8095703125	410.6019287109375	210.0009002685547	-321.4317321777344	660.7958984375	462.7489624023438	184.2977142333984	556.12890625	704.9927368164062	196.5832977294922	728.1044311523438	42.47443771362305	119.8751602172852	712.7982177734375	323.7499389648438	185.8786163330078	861.1060791015625	51.86367034912109	274.1953735351562	866.081298828125	45.87374114990234	199.2943267822266	771.702880859375	44.22562789916992	222.1530456542969	747.8037719726562	32.08097076416016	52.9984245300293	916.6407470703125	684.1227416992188	-39.38138580322266	
304	3.03	514.4526977539062	922.45703125	6.684422016143799	601.51416015625	924.0535278320312	-80.6904296875	560.3831787109375	992.8685913085938	-50.77022933959961	697.6521606445312	1163.175903320312	115.4930419921875	540.007568359375	1097.93115234375	-68.05783081054688	559.422119140625	1327.921630859375	-19.67427253723145	665.4359130859375	1257.108032226562	92.20452880859375	470.6867065429688	1201.226806640625	-7.338488101959229	610.1032104492188	1279.31103515625	-98.98129272460938	721.93408203125	1335.154907226562	-75.25768280029297	769.617431640625	1213.688354492188	-127.4554138183594	826.0926513671875	1010.260803222656	-140.2478485107422	728.8756713867188	986.5744018554688	-140.5139465332031	894.5946044921875	837.9495849609375	-44.81321716308594	873.0480346679688	792.93505859375	-125.2305755615234	853.7694702148438	930.460693359375	-127.25390625	898.53759765625	745.4335327148438	-103.0088348388672	928.4854736328125	765.3606567382812	-48.55232620239258	480.606201171875	1313.886840820312	113.9294815063477	426.3473815917969	1249.132080078125	120.373291015625	357.7327880859375	994.9951782226562	81.84226226806641	381.4400634765625	989.2125854492188	19.40510559082031	389.2594299316406	769.5596313476562	111.0778656005859	322.1361999511719	770.3682861328125	49.3831901550293	345.0715026855469	942.8443603515625	73.04440307617188	366.8002319335938	618.5691528320312	68.98429870605469	359.3895568847656	678.6864013671875	104.3836212158203	318.6018981933594	698.5119018554688	49.93136978149414	513.0787963867188	1475.376831054688	77.67068481445312	697.4529418945312	1548.3837890625	101.5906600952148	594.287109375	1530.353271484375	173.8622741699219	633.8602294921875	1494.09423828125	-25.27635192871094	768.0869750976562	853.6228637695312	-103.0371322631836	511.7257995605469	827.9515991210938	174.5693511962891	624.6739501953125	879.768798828125	189.7570343017578	788.8775634765625	890.016357421875	11.52785968780518	751.1412353515625	431.723876953125	-98.11869812011719	778.3369140625	590.9766235351562	-85.59532165527344	483.0726013183594	181.6250457763672	-347.410400390625	674.8328857421875	331.5865783691406	-180.0923767089844	512.1888427734375	28.16010284423828	-244.6190338134766	464.4425659179688	80.24066925048828	-240.8623352050781	523.04638671875	81.41852569580078	-329.9219055175781	428.9142761230469	220.8129425048828	-312.6296691894531	665.427490234375	462.818603515625	190.1493530273438	561.593017578125	705.7496337890625	203.9334564208984	728.779296875	42.83113861083984	120.3335418701172	716.4835205078125	323.3518371582031	189.8053131103516	862.4622192382812	49.35696792602539	274.6645202636719	867.0263061523438	44.2629508972168	199.5016021728516	772.6747436523438	43.63381576538086	222.5659790039062	748.111328125	32.5387077331543	53.31443023681641	921.2389526367188	683.7186889648438	-29.14164543151855	
305	3.04	520.9508666992188	923.2154541015625	13.46705627441406	608.8269653320312	923.7879028320312	-73.27582550048828	567.6168823242188	993.4783935546875	-42.68746185302734	703.774658203125	1163.781127929688	123.7525024414062	547.8372192382812	1098.472778320312	-60.08385467529297	566.102294921875	1328.538208007812	-12.15604209899902	671.672119140625	1257.708129882812	100.2814025878906	477.4584655761719	1201.768676757812	0.02714128047227859	617.2970581054688	1279.88720703125	-91.24814605712891	729.0101928710938	1335.7568359375	-66.85654449462891	777.009521484375	1214.112548828125	-118.4433364868164	833.0733032226562	1010.501708984375	-130.3634796142578	735.8209228515625	987.1076049804688	-131.2928771972656	900.3209228515625	837.7750854492188	-34.69216537475586	879.258544921875	793.009765625	-115.4139099121094	860.4782104492188	930.6142578125	-117.2994842529297	904.2943115234375	745.334716796875	-93.029541015625	933.79150390625	764.9376831054688	-38.24260711669922	486.8848571777344	1314.603393554688	121.2793197631836	432.5890808105469	1249.698608398438	127.8595504760742	364.6708374023438	995.078369140625	90.49392700195312	388.4278564453125	989.0113525390625	28.07881736755371	396.8942565917969	769.9393310546875	121.331169128418	329.9103698730469	770.1605834960938	59.4127197265625	352.2354125976562	942.8027954101562	81.96875	375.163330078125	618.5084838867188	79.9049072265625	367.4064636230469	678.9557495117188	115.0968780517578	326.6731262207031	698.2992553710938	60.42223358154297	518.8401489257812	1475.675903320312	84.54209899902344	702.732666015625	1549.738403320312	108.6754837036133	599.48974609375	1531.556030273438	180.7140197753906	639.8485717773438	1494.5146484375	-18.13815879821777	775.80126953125	853.2750244140625	-93.90011596679688	517.1339111328125	828.9107666015625	181.7468719482422	629.9121704101562	880.7311401367188	197.8177947998047	795.51904296875	890.62646484375	20.86458206176758	769.0130615234375	430.861572265625	-82.9329833984375	791.2352905273438	590.9723510742188	-72.72991943359375	500.792724609375	190.4413909912109	-338.0193786621094	693.413818359375	332.651611328125	-165.9014129638672	520.781005859375	28.2631893157959	-239.6852722167969	476.0519409179688	85.80989074707031	-235.1327362060547	535.9835205078125	87.87215423583984	-322.6915588378906	447.684814453125	230.6142425537109	-302.9682006835938	669.4749755859375	462.732421875	195.5206451416016	566.7325439453125	706.364990234375	210.9725494384766	729.2966918945312	43.06825637817383	120.7361679077148	719.5455322265625	322.8319091796875	193.4510192871094	863.398681640625	47.15947723388672	275.1456604003906	867.6747436523438	42.98139190673828	199.7420654296875	773.3638305664062	43.04537200927734	222.9879760742188	748.3452758789062	32.91228866577148	53.58341217041016	925.8486938476562	683.3106689453125	-19.10613441467285	
